<?xml version="1.0" encoding="UTF-8" standalone="no"?>
<!DOCTYPE svg PUBLIC "-//W3C//DTD SVG 1.1//EN" "http://www.w3.org/Graphics/SVG/1.1/DTD/svg11.dtd">
<svg version="1.1" xmlns="http://www.w3.org/2000/svg" xmlns:xlink="http://www.w3.org/1999/xlink" preserveAspectRatio="xMidYMid meet" viewBox="0 0 640 640" width="640" height="640"><defs><path d="M53.33 320C53.33 467.04 172.96 586.67 320 586.67C467.04 586.67 586.67 467.04 586.67 320C586.67 172.96 467.04 53.33 320 53.33C172.96 53.33 53.33 172.96 53.33 320ZM320 400C378.51 400 428.67 437.52 446.37 491.47C410.96 517.65 367.33 533.33 320 533.33C272.67 533.33 229.04 517.65 193.63 491.47C211.33 437.52 261.49 400 320 400ZM320 213.33C356.75 213.33 386.67 243.25 386.67 280C386.67 316.75 356.75 346.67 320 346.67C283.25 346.67 253.33 316.75 253.33 280C253.33 243.25 283.25 213.33 320 213.33ZM403.17 366.16C425.79 344.32 440 313.84 440 280C440 213.84 386.16 160 320 160C253.84 160 200 213.84 200 280C200 313.84 214.21 344.32 236.83 366.16C200.24 384.29 170.37 414.11 152.27 451.36C123.81 415.09 106.67 369.55 106.67 320C106.67 202.37 202.37 106.67 320 106.67C437.63 106.67 533.33 202.37 533.33 320C533.33 369.55 516.19 415.09 487.73 451.36C469.63 414.13 439.76 384.29 403.17 366.16Z" id="c18PUlTprv"></path></defs><g><g><g><use xlink:href="#c18PUlTprv" opacity="1" fill="#3f8ad9" fill-opacity="1"></use><g><use xlink:href="#c18PUlTprv" opacity="1" fill-opacity="0" stroke="#000000" stroke-width="1" stroke-opacity="0"></use></g></g></g></g></svg>