<?xml version="1.0" encoding="UTF-8" standalone="no"?>
<!DOCTYPE svg PUBLIC "-//W3C//DTD SVG 1.1//EN" "http://www.w3.org/Graphics/SVG/1.1/DTD/svg11.dtd">
<svg version="1.1" xmlns="http://www.w3.org/2000/svg" xmlns:xlink="http://www.w3.org/1999/xlink" preserveAspectRatio="xMidYMid meet" viewBox="0 0 640 640" width="640" height="640"><defs><path d="M209.11 258.75C233.19 271.42 246.57 278.46 249.24 279.87C255.58 281.98 264.03 279.87 266.14 273.53C268.25 267.19 266.14 258.75 259.8 256.63C255.79 254.52 223.68 237.62 219.67 235.51C213.33 233.4 204.88 235.51 202.77 241.85C200.66 248.18 202.77 254.52 209.11 258.75" id="a271d81PHa"></path><path d="M209.11 324.22C233.19 336.9 246.57 343.94 249.24 345.35C255.58 347.46 264.03 345.35 266.14 339.01C268.25 332.67 266.14 324.22 259.8 322.11C255.79 320 223.68 303.1 219.67 300.99C213.33 298.88 204.88 300.99 202.77 307.33C200.66 313.66 202.77 320 209.11 324.22" id="c84Qt6iRD"></path><path d="M209.11 389.7C233.19 402.38 246.57 409.42 249.24 410.83C255.58 412.94 264.03 410.83 266.14 404.49C268.25 398.15 266.14 389.7 259.8 387.59C255.79 385.48 223.68 368.58 219.67 366.47C213.33 364.36 204.88 366.47 202.77 372.81C200.66 379.14 202.77 387.59 209.11 389.7" id="d4BP5lLqDf"></path><path d="M409.77 389.7C385.69 402.38 372.31 409.42 369.64 410.83C363.3 412.94 354.85 410.83 352.74 404.49C350.63 398.15 352.74 389.7 359.08 387.59C363.09 385.48 395.19 368.58 399.21 366.47C405.54 364.36 413.99 366.47 416.11 372.81C418.22 379.14 416.11 387.59 409.77 389.7" id="fao27HUyn"></path><path d="M409.77 324.22C385.69 336.9 372.31 343.94 369.64 345.35C363.3 347.46 354.85 345.35 352.74 339.01C350.63 332.67 352.74 324.22 359.08 322.11C363.09 320 395.19 303.1 399.21 300.99C405.54 298.88 413.99 300.99 416.11 307.33C418.22 313.66 416.11 320 409.77 324.22" id="crAmgfmPb"></path><path d="M409.77 258.75C385.69 271.42 372.31 278.46 369.64 279.87C363.3 281.98 354.85 279.87 352.74 273.53C350.63 267.19 352.74 258.75 359.08 256.63C363.09 254.52 395.19 237.62 399.21 235.51C405.54 233.4 413.99 235.51 416.11 241.85C418.22 248.18 416.11 254.52 409.77 258.75" id="a6aBpPRFh"></path><path d="M513.27 222.84C510.45 222.84 496.37 222.84 471.02 222.84L471.02 134.13C460.88 139.19 455.25 142.01 454.13 142.57C454.13 142.57 454.13 142.57 454.13 142.57C444.55 147.36 396.67 171.3 310.5 214.39L166.86 142.57L147.85 134.13L147.85 222.84L95.05 222.84L95.05 505.87L525.94 505.87L525.94 241.85L525.94 241.85L525.94 222.84L513.27 222.84C511.86 222.84 511.86 222.84 513.27 222.84ZM118.28 246.07L147.85 246.07L147.85 400.26L147.85 423.5L168.98 434.06L255.58 478.42L118.28 478.42L118.28 246.07ZM173.2 410.83L173.2 174.26L295.71 235.51L295.71 472.08L173.2 410.83ZM443.56 174.26L443.56 408.71L321.06 472.08L321.06 235.51L443.56 174.26ZM361.19 478.42L468.91 423.5L468.91 248.18L498.48 248.18L498.48 478.42L361.19 478.42Z" id="c1yUjhieuz"></path></defs><g><g><g><use xlink:href="#a271d81PHa" opacity="1" fill="#3f8ad9" fill-opacity="1"></use><g><use xlink:href="#a271d81PHa" opacity="1" fill-opacity="0" stroke="#000000" stroke-width="1" stroke-opacity="0"></use></g></g><g><use xlink:href="#c84Qt6iRD" opacity="1" fill="#3f8ad9" fill-opacity="1"></use><g><use xlink:href="#c84Qt6iRD" opacity="1" fill-opacity="0" stroke="#000000" stroke-width="1" stroke-opacity="0"></use></g></g><g><use xlink:href="#d4BP5lLqDf" opacity="1" fill="#3f8ad9" fill-opacity="1"></use><g><use xlink:href="#d4BP5lLqDf" opacity="1" fill-opacity="0" stroke="#000000" stroke-width="1" stroke-opacity="0"></use></g></g><g><use xlink:href="#fao27HUyn" opacity="1" fill="#3f8ad9" fill-opacity="1"></use><g><use xlink:href="#fao27HUyn" opacity="1" fill-opacity="0" stroke="#000000" stroke-width="1" stroke-opacity="0"></use></g></g><g><use xlink:href="#crAmgfmPb" opacity="1" fill="#3f8ad9" fill-opacity="1"></use><g><use xlink:href="#crAmgfmPb" opacity="1" fill-opacity="0" stroke="#000000" stroke-width="1" stroke-opacity="0"></use></g></g><g><use xlink:href="#a6aBpPRFh" opacity="1" fill="#3f8ad9" fill-opacity="1"></use><g><use xlink:href="#a6aBpPRFh" opacity="1" fill-opacity="0" stroke="#000000" stroke-width="1" stroke-opacity="0"></use></g></g><g><use xlink:href="#c1yUjhieuz" opacity="1" fill="#3f8ad9" fill-opacity="1"></use><g><use xlink:href="#c1yUjhieuz" opacity="1" fill-opacity="0" stroke="#000000" stroke-width="1" stroke-opacity="0"></use></g></g></g></g></svg>