<?xml version="1.0" encoding="UTF-8" standalone="no"?>
<!DOCTYPE svg PUBLIC "-//W3C//DTD SVG 1.1//EN" "http://www.w3.org/Graphics/SVG/1.1/DTD/svg11.dtd">
<svg version="1.1" xmlns="http://www.w3.org/2000/svg" xmlns:xlink="http://www.w3.org/1999/xlink" preserveAspectRatio="xMidYMid meet" viewBox="0 0 640 640" width="640" height="640"><defs><path d="M480.67 442.96C513.55 401.89 533.33 349.92 533.33 293.33C533.33 161.01 425.65 53.33 293.33 53.33C161.01 53.33 53.33 161.01 53.33 293.33C53.33 425.65 161.01 533.33 293.33 533.33C349.92 533.33 401.89 513.55 442.96 480.67C449.51 487.21 482.23 519.94 541.15 578.85L578.85 541.15C519.94 482.23 487.21 449.51 480.67 442.96ZM293.33 106.67C396.27 106.67 480 190.4 480 293.33C480 396.27 396.27 480 293.33 480C190.4 480 106.67 396.27 106.67 293.33C106.67 190.4 190.4 106.67 293.33 106.67Z" id="g2x9fesGZ"></path></defs><g><g><g><use xlink:href="#g2x9fesGZ" opacity="1" fill="#3f8ad9" fill-opacity="1"></use><g><use xlink:href="#g2x9fesGZ" opacity="1" fill-opacity="0" stroke="#000000" stroke-width="1" stroke-opacity="0"></use></g></g></g></g></svg>